<?xml version="1.0" encoding="utf-8"?>
<!-- Generator: Adobe Illustrator 28.1.0, SVG Export Plug-In . SVG Version: 6.00 Build 0)  -->
<svg version="1.1" id="レイヤー_1" xmlns="http://www.w3.org/2000/svg" xmlns:xlink="http://www.w3.org/1999/xlink" x="0px"
	 y="0px" viewBox="0 0 256 256" style="enable-background:new 0 0 256 256;" xml:space="preserve">
<style type="text/css">
	.st0{fill:#669933;}
	.st1{fill:#FFFFFF;}
</style>
<path class="st0" d="M213.06,256H42.94C19.32,256,0,236.68,0,213.06V42.94C0,19.32,19.32,0,42.94,0h170.12
	C236.68,0,256,19.32,256,42.94v170.12C256,236.68,236.68,256,213.06,256z"/>
<g>
	<path class="st1" d="M133.97,37l4.73,28.02l0.19,1.3c0,1.79-0.63,2.69-1.9,2.69c-0.84,0-1.69-0.68-2.53-2.04
		c-4.77-7.42-10.17-13.19-16.17-17.3c-6.01-4.11-15.71-6.17-29.09-6.17c-9.23,0-14.41,0.97-15.52,2.92
		C72.56,48.36,72,63.56,72,92.01c6.87,0,12.14-0.48,15.82-1.43c3.68-0.95,6.52-2.63,8.54-5.03c2.01-2.4,3.85-6.84,5.52-13.3
		c0.43-1.72,1.14-2.59,2.13-2.59c1.86,0,2.78,1.18,2.78,3.53l-0.65,29.59c-0.19,10.27-0.46,15.79-0.83,16.56
		c-0.37,0.77-1.05,1.16-2.04,1.16c-1.55,0-2.47-1.24-2.78-3.73c-0.68-5.77-2.64-10.32-5.89-13.65C91.34,99.8,83.81,98.14,72,98.14
		l-0.09,34.42c0,6.74,0.48,11.54,1.44,14.38c0.96,2.85,2.4,4.78,4.31,5.8c1.92,1.02,4.92,1.59,9,1.72c2.97,0.06,4.85,0.26,5.66,0.6
		c0.8,0.34,1.21,1.1,1.21,2.27c0,1.98-1.39,2.97-4.17,2.97c-2.54,0-7.36-0.22-14.47-0.65c-6-0.37-10.51-0.56-13.54-0.56l-29.32,0.93
		c-2.97,0-4.45-0.9-4.45-2.69c0-1.67,1.82-2.57,5.47-2.69c6.31-0.25,10.08-3.06,11.32-8.43c1.24-5.37,1.86-24.88,1.86-58.54
		c0-21.86-0.79-34.89-2.37-39.09c-1.58-4.2-5.43-6.3-11.55-6.3l-2.5,0.09c-2.23,0-3.34-0.93-3.34-2.78c0-1.73,1.79-2.6,5.38-2.6
		H133.97z"/>
	<path class="st1" d="M222.32,226.06c-15.46-0.8-39.52-1.21-72.18-1.21c-11.38,0-20.63,0.34-27.74,1.02c-1.73,0.12-3,0.19-3.8,0.19
		c-2.35,0-3.53-0.93-3.53-2.78c0-0.87,0.31-1.47,0.93-1.81c0.62-0.34,2.13-0.7,4.55-1.07c3.83-0.56,6.77-1.69,8.81-3.39
		s3.48-4.24,4.31-7.62c0.84-3.38,1.31-11.99,1.44-25.83c0.12-13.85,0.19-30.31,0.19-49.39c0-7.62-0.56-13.15-1.67-16.59
		s-2.71-5.95-4.78-7.53s-5-2.46-8.77-2.65c-2.66-0.12-3.99-1.11-3.99-2.97s1.51-2.78,4.55-2.78l30.8,0.93
		c4.76,0,11.41-0.24,19.95-0.72c3.09-0.14,5.2-0.21,6.31-0.21c2.6,0,3.9,0.9,3.9,2.69c0,0.99-0.42,1.69-1.25,2.09
		c-0.84,0.4-2.92,0.85-6.26,1.35c-4.14,0.56-7.07,1.61-8.77,3.16c-1.7,1.55-2.85,4.24-3.43,8.08c-0.59,3.84-0.88,12.45-0.88,25.83
		v56.41c0.06,8.67,0.83,13.83,2.32,15.47c1.48,1.64,4.3,2.46,8.45,2.46c10.15,0,17.7-0.79,22.65-2.37s9.67-4.44,14.16-8.58
		c4.49-4.14,9.3-11.1,14.43-20.87c1.05-1.98,2.12-2.97,3.23-2.97c1.66,0,2.49,0.9,2.49,2.69
		C228.72,191.12,226.59,204.11,222.32,226.06z"/>
</g>
</svg>
